# xmcd CD database file
#
# Track frame offsets:
#	150
#	4328
#	15506
#	20263
#	27823
#	46770
#	58742
#	68392
#	75859
#	85929
#	101517
#	120246
#	133902
#	143389
#	151559
#	170896
#	181520
#	194556
#	203454
#	213086
#	226032
#	234765
#	244529
#	251451
#	259507
#	273572
#	279269
#
# Disc length: 4398 seconds
#
# Revision: 1
# Processed by: cddbd v1.5.2PL0 Copyright (c) Steve Scherf et al.
# Submitted via: CDex 1.51
#
DISCID=3b112c1b
DTITLE=Diana Cooper - Meditationen für ein neues Zeitalter
DYEAR=1900
DGENRE=New Age
TTITLE0=Aufstieg in die 7. Dimension
TTITLE1=Aufstieg in die 7. Dimension
TTITLE2=Aufstieg in die 7. Dimension
TTITLE3=Aufstieg in die 7. Dimension
TTITLE4=Aufstieg in die 7. Dimension
TTITLE5=Aufstieg in die 7. Dimension
TTITLE6=Aufstieg in die 7. Dimension
TTITLE7=Aufstieg in die 7. Dimension
TTITLE8=Aufstieg in die 7. Dimension
TTITLE9=Aufstieg in die 7. Dimension
TTITLE10=Aufstieg in die 7. Dimension
TTITLE11=Aufstieg in die 7. Dimension
TTITLE12=Aufstieg in die 7. Dimension
TTITLE13=Aufstieg in die 7. Dimension
TTITLE14=Aufstieg in die 7. Dimension
TTITLE15=Aufstieg in die 7. Dimension
TTITLE16=Aufstieg in die 7. Dimension
TTITLE17=Aufstieg in die 7. Dimension
TTITLE18=Aufstieg in die 7. Dimension
TTITLE19=Aufstieg in die 7. Dimension
TTITLE20=Aufstieg in die 7. Dimension
TTITLE21=Aufstieg in die 7. Dimension
TTITLE22=Aufstieg in die 7. Dimension
TTITLE23=Aufstieg in die 7. Dimension
TTITLE24=Aufstieg in die 7. Dimension
TTITLE25=Aufstieg in die 7. Dimension
TTITLE26=Aufstieg in die 7. Dimension
EXTD=
EXTT0=
EXTT1=
EXTT2=
EXTT3=
EXTT4=
EXTT5=
EXTT6=
EXTT7=
EXTT8=
EXTT9=
EXTT10=
EXTT11=
EXTT12=
EXTT13=
EXTT14=
EXTT15=
EXTT16=
EXTT17=
EXTT18=
EXTT19=
EXTT20=
EXTT21=
EXTT22=
EXTT23=
EXTT24=
EXTT25=
EXTT26=
PLAYORDER=
